# xmcd CD database file
#
# Track frame offsets:
#	150
#	27835
#	52172
#	84266
#	114869
#	148770
#	206827
#
# Disc length: 3133 seconds
#
# Revision: 0
# Processed by: cddbd v1.4PL0 Copyright (c) Steve Scherf et al.
# Submitted via: CDex 1.50
#
DISCID=5c0c3b07
DTITLE=Chaz Jankel - Out of the Blue
DYEAR=2001
DGENRE=Jazz
TTITLE0=Archies lover
TTITLE1=Song for Bill
TTITLE2=Intoxication
TTITLE3=Saudade
TTITLE4=New life
TTITLE5=Piano sonata in e major
TTITLE6=First day of spring
EXTD=YEAR: 2001
EXTT0=
EXTT1=
EXTT2=
EXTT3=
EXTT4=
EXTT5=
EXTT6=
PLAYORDER=
